# Wavefront OBJ file automatically generated by Tiled2Unity

# Vertices (Count = 234)
v -208 -48 0
v -224 -48 0
v -224 -32 0
v -208 -32 0
v -240 -48 0
v -240 -32 0
v -256 -48 0
v -256 -32 0
v -272 -48 0
v -272 -32 0
v -288 -48 0
v -288 -32 0
v -304 -48 0
v -304 -32 0
v -80 -64 0
v -96 -64 0
v -96 -48 0
v -80 -48 0
v -112 -64 0
v -112 -48 0
v -128 -64 0
v -128 -48 0
v -144 -64 0
v -144 -48 0
v -160 -64 0
v -160 -48 0
v -176 -64 0
v -176 -48 0
v -192 -64 0
v -192 -48 0
v -208 -64 0
v -224 -64 0
v -240 -64 0
v -256 -64 0
v -272 -64 0
v -288 -64 0
v -304 -64 0
v -80 -80 0
v -96 -80 0
v -112 -80 0
v -128 -80 0
v -144 -80 0
v -160 -80 0
v -176 -80 0
v -192 -80 0
v -208 -80 0
v -224 -80 0
v -240 -80 0
v -256 -80 0
v -272 -80 0
v -288 -80 0
v -304 -80 0
v 0 -96 0
v -16 -96 0
v -16 -80 0
v 0 -80 0
v -32 -96 0
v -32 -80 0
v 0 -112 0
v -16 -112 0
v -32 -112 0
v -48 -112 0
v -48 -96 0
v 0 -128 0
v -16 -128 0
v -32 -128 0
v -48 -128 0
v 0 -144 0
v -16 -144 0
v -32 -144 0
v -48 -144 0
v -64 -144 0
v -64 -128 0
v 0 -160 0
v -16 -160 0
v -32 -160 0
v -48 -160 0
v -64 -160 0
v 0 -176 0
v -16 -176 0
v -32 -176 0
v -48 -176 0
v -64 -176 0
v -80 -176 0
v -80 -160 0
v -96 -176 0
v -96 -160 0
v -144 -176 0
v -160 -176 0
v -160 -160 0
v -144 -160 0
v -176 -176 0
v -176 -160 0
v -192 -176 0
v -192 -160 0
v -208 -176 0
v -208 -160 0
v -224 -176 0
v -224 -160 0
v -240 -176 0
v -240 -160 0
v 0 -192 0
v -16 -192 0
v -32 -192 0
v -48 -192 0
v -64 -192 0
v -80 -192 0
v -96 -192 0
v -144 -192 0
v -160 -192 0
v -176 -192 0
v -192 -192 0
v -208 -192 0
v -224 -192 0
v -240 -192 0
v -272 -208 0
v -288 -208 0
v -288 -192 0
v -272 -192 0
v -304 -208 0
v -304 -192 0
v -320 -208 0
v -320 -192 0
v -272 -224 0
v -288 -224 0
v -304 -224 0
v -320 -224 0
v -240 -240 0
v -256 -240 0
v -256 -224 0
v -240 -224 0
v -272 -240 0
v -288 -240 0
v -304 -240 0
v -320 -240 0
v -160 -256 0
v -176 -256 0
v -176 -240 0
v -160 -240 0
v -192 -256 0
v -192 -240 0
v -208 -256 0
v -208 -240 0
v -240 -256 0
v -256 -256 0
v -272 -256 0
v -288 -256 0
v -304 -256 0
v -320 -256 0
v -160 -272 0
v -176 -272 0
v -192 -272 0
v -208 -272 0
v -224 -272 0
v -224 -256 0
v -240 -272 0
v -256 -272 0
v -272 -272 0
v -288 -272 0
v -304 -272 0
v -320 -272 0
v 0 -288 0
v -16 -288 0
v -16 -272 0
v 0 -272 0
v -32 -288 0
v -32 -272 0
v -48 -288 0
v -48 -272 0
v -64 -288 0
v -64 -272 0
v -80 -288 0
v -80 -272 0
v -96 -288 0
v -96 -272 0
v -112 -288 0
v -112 -272 0
v -128 -288 0
v -128 -272 0
v -144 -288 0
v -144 -272 0
v -160 -288 0
v -176 -288 0
v -192 -288 0
v -208 -288 0
v -224 -288 0
v -240 -288 0
v -256 -288 0
v -272 -288 0
v -288 -288 0
v -304 -288 0
v -320 -288 0
v 0 -304 0
v -16 -304 0
v -32 -304 0
v -48 -304 0
v -64 -304 0
v -80 -304 0
v -96 -304 0
v -112 -304 0
v -128 -304 0
v -144 -304 0
v -160 -304 0
v -176 -304 0
v -192 -304 0
v -208 -304 0
v -224 -304 0
v -240 -304 0
v -256 -304 0
v -272 -304 0
v -288 -304 0
v -304 -304 0
v -320 -304 0
v 0 -320 0
v -16 -320 0
v -32 -320 0
v -48 -320 0
v -64 -320 0
v -80 -320 0
v -96 -320 0
v -112 -320 0
v -128 -320 0
v -144 -320 0
v -160 -320 0
v -176 -320 0
v -192 -320 0
v -208 -320 0
v -224 -320 0
v -240 -320 0
v -256 -320 0
v -272 -320 0
v -288 -320 0
v -304 -320 0
v -320 -320 0

# Texture cooridinates (Count = 48)
vt 0.7500153 0.8000244
vt 0.8749847 0.8000244
vt 0.8749847 0.9999756
vt 0.7500153 0.9999756
vt 0.1250153 0.8000244
vt 0.2499847 0.8000244
vt 0.2499847 0.9999756
vt 0.1250153 0.9999756
vt 0.8750153 0.8000244
vt 0.9999847 0.8000244
vt 0.9999847 0.9999756
vt 0.8750153 0.9999756
vt 0.5000153 0.4000244
vt 0.6249847 0.4000244
vt 0.6249847 0.5999756
vt 0.5000153 0.5999756
vt 0.1250153 0.6000244
vt 0.2499847 0.6000244
vt 0.2499847 0.7999756
vt 0.1250153 0.7999756
vt 0.2500153 0.6000244
vt 0.3749847 0.6000244
vt 0.3749847 0.7999756
vt 0.2500153 0.7999756
vt 0.7500153 0.6000244
vt 0.8749847 0.6000244
vt 0.8749847 0.7999756
vt 0.7500153 0.7999756
vt 0.1250153 0.4000244
vt 0.2499847 0.4000244
vt 0.2499847 0.5999756
vt 0.1250153 0.5999756
vt 0.8750153 0.6000244
vt 0.9999847 0.6000244
vt 0.9999847 0.7999756
vt 0.8750153 0.7999756
vt 0.6250153 0.4000244
vt 0.7499847 0.4000244
vt 0.7499847 0.5999756
vt 0.6250153 0.5999756
vt 1.525879E-05 0.6000244
vt 0.1249847 0.6000244
vt 0.1249847 0.7999756
vt 1.525879E-05 0.7999756
vt 0.6250153 0.2000244
vt 0.7499847 0.2000244
vt 0.7499847 0.3999756
vt 0.6250153 0.3999756

# Normal
vn 0 0 -1

# Groups (Count = 1)

g mesh_0001
f 1/1/1 2/2/1 3/3/1 4/4/1
f 2/5/1 5/6/1 6/7/1 3/8/1
f 5/5/1 7/6/1 8/7/1 6/8/1
f 7/5/1 9/6/1 10/7/1 8/8/1
f 9/5/1 11/6/1 12/7/1 10/8/1
f 11/9/1 13/10/1 14/11/1 12/12/1
f 15/1/1 16/2/1 17/3/1 18/4/1
f 16/5/1 19/6/1 20/7/1 17/8/1
f 19/5/1 21/6/1 22/7/1 20/8/1
f 21/5/1 23/6/1 24/7/1 22/8/1
f 23/5/1 25/6/1 26/7/1 24/8/1
f 25/5/1 27/6/1 28/7/1 26/8/1
f 27/5/1 29/6/1 30/7/1 28/8/1
f 29/5/1 31/6/1 1/7/1 30/8/1
f 31/13/1 32/14/1 2/15/1 1/16/1
f 32/17/1 33/18/1 5/19/1 2/20/1
f 33/17/1 34/18/1 7/19/1 5/20/1
f 34/17/1 35/18/1 9/19/1 7/20/1
f 35/17/1 36/18/1 11/19/1 9/20/1
f 36/21/1 37/22/1 13/23/1 11/24/1
f 38/25/1 39/26/1 16/27/1 15/28/1
f 39/29/1 40/30/1 19/31/1 16/32/1
f 40/29/1 41/30/1 21/31/1 19/32/1
f 41/29/1 42/30/1 23/31/1 21/32/1
f 42/29/1 43/30/1 25/31/1 23/32/1
f 43/29/1 44/30/1 27/31/1 25/32/1
f 44/29/1 45/30/1 29/31/1 27/32/1
f 45/29/1 46/30/1 31/31/1 29/32/1
f 46/29/1 47/30/1 32/31/1 31/32/1
f 47/29/1 48/30/1 33/31/1 32/32/1
f 48/29/1 49/30/1 34/31/1 33/32/1
f 49/29/1 50/30/1 35/31/1 34/32/1
f 50/29/1 51/30/1 36/31/1 35/32/1
f 51/33/1 52/34/1 37/35/1 36/36/1
f 53/1/1 54/2/1 55/3/1 56/4/1
f 54/9/1 57/10/1 58/11/1 55/12/1
f 59/13/1 60/14/1 54/15/1 53/16/1
f 60/37/1 61/38/1 57/39/1 54/40/1
f 61/9/1 62/10/1 63/11/1 57/12/1
f 64/17/1 65/18/1 60/19/1 59/20/1
f 65/17/1 66/18/1 61/19/1 60/20/1
f 66/21/1 67/22/1 62/23/1 61/24/1
f 68/17/1 69/18/1 65/19/1 64/20/1
f 69/17/1 70/18/1 66/19/1 65/20/1
f 70/37/1 71/38/1 67/39/1 66/40/1
f 71/9/1 72/10/1 73/11/1 67/12/1
f 74/17/1 75/18/1 69/19/1 68/20/1
f 75/17/1 76/18/1 70/19/1 69/20/1
f 76/17/1 77/18/1 71/19/1 70/20/1
f 77/21/1 78/22/1 72/23/1 71/24/1
f 79/17/1 80/18/1 75/19/1 74/20/1
f 80/17/1 81/18/1 76/19/1 75/20/1
f 81/17/1 82/18/1 77/19/1 76/20/1
f 82/37/1 83/38/1 78/39/1 77/40/1
f 83/5/1 84/6/1 85/7/1 78/8/1
f 84/9/1 86/10/1 87/11/1 85/12/1
f 88/1/1 89/2/1 90/3/1 91/4/1
f 89/5/1 92/6/1 93/7/1 90/8/1
f 92/5/1 94/6/1 95/7/1 93/8/1
f 94/5/1 96/6/1 97/7/1 95/8/1
f 96/5/1 98/6/1 99/7/1 97/8/1
f 98/9/1 100/10/1 101/11/1 99/12/1
f 102/29/1 103/30/1 80/31/1 79/32/1
f 103/29/1 104/30/1 81/31/1 80/32/1
f 104/29/1 105/30/1 82/31/1 81/32/1
f 105/29/1 106/30/1 83/31/1 82/32/1
f 106/29/1 107/30/1 84/31/1 83/32/1
f 107/33/1 108/34/1 86/35/1 84/36/1
f 109/25/1 110/26/1 89/27/1 88/28/1
f 110/29/1 111/30/1 92/31/1 89/32/1
f 111/29/1 112/30/1 94/31/1 92/32/1
f 112/29/1 113/30/1 96/31/1 94/32/1
f 113/29/1 114/30/1 98/31/1 96/32/1
f 114/33/1 115/34/1 100/35/1 98/36/1
f 116/1/1 117/2/1 118/3/1 119/4/1
f 117/5/1 120/6/1 121/7/1 118/8/1
f 120/9/1 122/10/1 123/11/1 121/12/1
f 124/41/1 125/42/1 117/43/1 116/44/1
f 125/17/1 126/18/1 120/19/1 117/20/1
f 126/21/1 127/22/1 122/23/1 120/24/1
f 128/1/1 129/2/1 130/3/1 131/4/1
f 129/5/1 132/6/1 124/7/1 130/8/1
f 132/13/1 133/14/1 125/15/1 124/16/1
f 133/17/1 134/18/1 126/19/1 125/20/1
f 134/21/1 135/22/1 127/23/1 126/24/1
f 136/1/1 137/2/1 138/3/1 139/4/1
f 137/5/1 140/6/1 141/7/1 138/8/1
f 140/9/1 142/10/1 143/11/1 141/12/1
f 144/41/1 145/42/1 129/43/1 128/44/1
f 145/17/1 146/18/1 132/19/1 129/20/1
f 146/17/1 147/18/1 133/19/1 132/20/1
f 147/17/1 148/18/1 134/19/1 133/20/1
f 148/37/1 149/38/1 135/39/1 134/40/1
f 150/41/1 151/42/1 137/43/1 136/44/1
f 151/17/1 152/18/1 140/19/1 137/20/1
f 152/37/1 153/38/1 142/39/1 140/40/1
f 153/5/1 154/6/1 155/7/1 142/8/1
f 154/5/1 156/6/1 144/7/1 155/8/1
f 156/13/1 157/14/1 145/15/1 144/16/1
f 157/17/1 158/18/1 146/19/1 145/20/1
f 158/17/1 159/18/1 147/19/1 146/20/1
f 159/17/1 160/18/1 148/19/1 147/20/1
f 160/17/1 161/18/1 149/19/1 148/20/1
f 162/1/1 163/2/1 164/3/1 165/4/1
f 163/5/1 166/6/1 167/7/1 164/8/1
f 166/5/1 168/6/1 169/7/1 167/8/1
f 168/5/1 170/6/1 171/7/1 169/8/1
f 170/5/1 172/6/1 173/7/1 171/8/1
f 172/5/1 174/6/1 175/7/1 173/8/1
f 174/5/1 176/6/1 177/7/1 175/8/1
f 176/5/1 178/6/1 179/7/1 177/8/1
f 178/5/1 180/6/1 181/7/1 179/8/1
f 180/5/1 182/6/1 150/7/1 181/8/1
f 182/13/1 183/14/1 151/15/1 150/16/1
f 183/17/1 184/18/1 152/19/1 151/20/1
f 184/17/1 185/18/1 153/19/1 152/20/1
f 185/17/1 186/18/1 154/19/1 153/20/1
f 186/17/1 187/18/1 156/19/1 154/20/1
f 187/17/1 188/18/1 157/19/1 156/20/1
f 188/17/1 189/18/1 158/19/1 157/20/1
f 189/17/1 190/18/1 159/19/1 158/20/1
f 190/17/1 191/18/1 160/19/1 159/20/1
f 191/45/1 192/46/1 161/47/1 160/48/1
f 193/41/1 194/42/1 163/43/1 162/44/1
f 194/17/1 195/18/1 166/19/1 163/20/1
f 195/17/1 196/18/1 168/19/1 166/20/1
f 196/17/1 197/18/1 170/19/1 168/20/1
f 197/17/1 198/18/1 172/19/1 170/20/1
f 198/17/1 199/18/1 174/19/1 172/20/1
f 199/17/1 200/18/1 176/19/1 174/20/1
f 200/17/1 201/18/1 178/19/1 176/20/1
f 201/17/1 202/18/1 180/19/1 178/20/1
f 202/17/1 203/18/1 182/19/1 180/20/1
f 203/17/1 204/18/1 183/19/1 182/20/1
f 204/17/1 205/18/1 184/19/1 183/20/1
f 205/17/1 206/18/1 185/19/1 184/20/1
f 206/17/1 207/18/1 186/19/1 185/20/1
f 207/17/1 208/18/1 187/19/1 186/20/1
f 208/17/1 209/18/1 188/19/1 187/20/1
f 209/17/1 210/18/1 189/19/1 188/20/1
f 210/17/1 211/18/1 190/19/1 189/20/1
f 211/17/1 212/18/1 191/19/1 190/20/1
f 212/21/1 213/22/1 192/23/1 191/24/1
f 214/25/1 215/26/1 194/27/1 193/28/1
f 215/29/1 216/30/1 195/31/1 194/32/1
f 216/29/1 217/30/1 196/31/1 195/32/1
f 217/29/1 218/30/1 197/31/1 196/32/1
f 218/29/1 219/30/1 198/31/1 197/32/1
f 219/29/1 220/30/1 199/31/1 198/32/1
f 220/29/1 221/30/1 200/31/1 199/32/1
f 221/29/1 222/30/1 201/31/1 200/32/1
f 222/29/1 223/30/1 202/31/1 201/32/1
f 223/29/1 224/30/1 203/31/1 202/32/1
f 224/29/1 225/30/1 204/31/1 203/32/1
f 225/29/1 226/30/1 205/31/1 204/32/1
f 226/29/1 227/30/1 206/31/1 205/32/1
f 227/29/1 228/30/1 207/31/1 206/32/1
f 228/29/1 229/30/1 208/31/1 207/32/1
f 229/29/1 230/30/1 209/31/1 208/32/1
f 230/29/1 231/30/1 210/31/1 209/32/1
f 231/29/1 232/30/1 211/31/1 210/32/1
f 232/29/1 233/30/1 212/31/1 211/32/1
f 233/33/1 234/34/1 213/35/1 212/36/1

