# Wavefront OBJ file automatically generated by Tiled2Unity

# Vertices (Count = 131)
v 0 -144 0
v -16 -144 0
v -16 -128 0
v 0 -128 0
v -32 -144 0
v -32 -128 0
v -48 -144 0
v -48 -128 0
v -64 -144 0
v -64 -128 0
v -96 -144 0
v -112 -144 0
v -112 -128 0
v -96 -128 0
v -128 -144 0
v -128 -128 0
v -144 -144 0
v -144 -128 0
v -160 -144 0
v -160 -128 0
v 0 -160 0
v -16 -160 0
v -32 -160 0
v -48 -160 0
v -64 -160 0
v -80 -160 0
v -80 -144 0
v -96 -160 0
v -112 -160 0
v -128 -160 0
v -144 -160 0
v -160 -160 0
v -176 -160 0
v -176 -144 0
v -208 -160 0
v -224 -160 0
v -224 -144 0
v -208 -144 0
v -240 -160 0
v -240 -144 0
v -256 -160 0
v -256 -144 0
v -272 -160 0
v -272 -144 0
v -288 -160 0
v -288 -144 0
v -304 -160 0
v -304 -144 0
v -320 -160 0
v -320 -144 0
v 0 -176 0
v -16 -176 0
v -32 -176 0
v -48 -176 0
v -64 -176 0
v -80 -176 0
v -96 -176 0
v -112 -176 0
v -128 -176 0
v -144 -176 0
v -160 -176 0
v -176 -176 0
v -192 -176 0
v -192 -160 0
v -208 -176 0
v -224 -176 0
v -240 -176 0
v -256 -176 0
v -272 -176 0
v -288 -176 0
v -304 -176 0
v -320 -176 0
v -80 -192 0
v -96 -192 0
v -112 -192 0
v -128 -192 0
v -144 -192 0
v -160 -192 0
v -176 -192 0
v -192 -192 0
v -80 -208 0
v -96 -208 0
v -112 -208 0
v -128 -208 0
v -144 -208 0
v -160 -208 0
v -176 -208 0
v -192 -208 0
v -80 -224 0
v -96 -224 0
v -112 -224 0
v -128 -224 0
v -144 -224 0
v -160 -224 0
v -128 -240 0
v -144 -240 0
v -160 -240 0
v -240 -240 0
v -256 -240 0
v -256 -224 0
v -240 -224 0
v -272 -240 0
v -272 -224 0
v -288 -240 0
v -288 -224 0
v -128 -256 0
v -144 -256 0
v -160 -256 0
v -176 -256 0
v -176 -240 0
v -192 -256 0
v -192 -240 0
v -208 -256 0
v -208 -240 0
v -224 -256 0
v -224 -240 0
v -240 -256 0
v -256 -256 0
v -272 -256 0
v -288 -256 0
v -128 -272 0
v -144 -272 0
v -160 -272 0
v -176 -272 0
v -192 -272 0
v -208 -272 0
v -224 -272 0
v -240 -272 0
v -256 -272 0
v -272 -272 0
v -288 -272 0

# Texture cooridinates (Count = 56)
vt 1.525879E-05 0.8000244
vt 0.1249847 0.8000244
vt 0.1249847 0.9999756
vt 1.525879E-05 0.9999756
vt 0.1250153 0.8000244
vt 0.2499847 0.8000244
vt 0.2499847 0.9999756
vt 0.1250153 0.9999756
vt 0.2500153 0.8000244
vt 0.3749847 0.8000244
vt 0.3749847 0.9999756
vt 0.2500153 0.9999756
vt 0.5000153 0.6000244
vt 0.6249847 0.6000244
vt 0.6249847 0.7999756
vt 0.5000153 0.7999756
vt 1.525879E-05 0.6000244
vt 0.1249847 0.6000244
vt 0.1249847 0.7999756
vt 1.525879E-05 0.7999756
vt 0.1250153 0.6000244
vt 0.2499847 0.6000244
vt 0.2499847 0.7999756
vt 0.1250153 0.7999756
vt 0.6250153 0.4000244
vt 0.7499847 0.4000244
vt 0.7499847 0.5999756
vt 0.6250153 0.5999756
vt 0.5000153 0.4000244
vt 0.6249847 0.4000244
vt 0.6249847 0.5999756
vt 0.5000153 0.5999756
vt 0.6250153 0.2000244
vt 0.7499847 0.2000244
vt 0.7499847 0.3999756
vt 0.6250153 0.3999756
vt 0.5000153 0.2000244
vt 0.6249847 0.2000244
vt 0.6249847 0.3999756
vt 0.5000153 0.3999756
vt 1.525879E-05 0.4000244
vt 0.1249847 0.4000244
vt 0.1249847 0.5999756
vt 1.525879E-05 0.5999756
vt 0.1250153 0.4000244
vt 0.2499847 0.4000244
vt 0.2499847 0.5999756
vt 0.1250153 0.5999756
vt 0.2500153 0.4000244
vt 0.3749847 0.4000244
vt 0.3749847 0.5999756
vt 0.2500153 0.5999756
vt 0.2500153 0.6000244
vt 0.3749847 0.6000244
vt 0.3749847 0.7999756
vt 0.2500153 0.7999756

# Normal
vn 0 0 -1

# Groups (Count = 1)

g mesh_0001
f 1/1/1 2/2/1 3/3/1 4/4/1
f 2/5/1 5/6/1 6/7/1 3/8/1
f 5/5/1 7/6/1 8/7/1 6/8/1
f 7/9/1 9/10/1 10/11/1 8/12/1
f 11/13/1 12/14/1 13/15/1 14/16/1
f 12/5/1 15/6/1 16/7/1 13/8/1
f 15/5/1 17/6/1 18/7/1 16/8/1
f 17/9/1 19/10/1 20/11/1 18/12/1
f 21/17/1 22/18/1 2/19/1 1/20/1
f 22/21/1 23/22/1 5/23/1 2/24/1
f 23/21/1 24/22/1 7/23/1 5/24/1
f 24/25/1 25/26/1 9/27/1 7/28/1
f 25/5/1 26/6/1 27/7/1 9/8/1
f 26/5/1 28/6/1 11/7/1 27/8/1
f 28/29/1 29/30/1 12/31/1 11/32/1
f 29/33/1 30/34/1 15/35/1 12/36/1
f 30/37/1 31/38/1 17/39/1 15/40/1
f 31/25/1 32/26/1 19/27/1 17/28/1
f 32/9/1 33/10/1 34/11/1 19/12/1
f 35/1/1 36/2/1 37/3/1 38/4/1
f 36/5/1 39/6/1 40/7/1 37/8/1
f 39/5/1 41/6/1 42/7/1 40/8/1
f 41/5/1 43/6/1 44/7/1 42/8/1
f 43/5/1 45/6/1 46/7/1 44/8/1
f 45/5/1 47/6/1 48/7/1 46/8/1
f 47/9/1 49/10/1 50/11/1 48/12/1
f 51/41/1 52/42/1 22/43/1 21/44/1
f 52/45/1 53/46/1 23/47/1 22/48/1
f 53/45/1 54/46/1 24/47/1 23/48/1
f 54/45/1 55/46/1 25/47/1 24/48/1
f 55/45/1 56/46/1 26/47/1 25/48/1
f 56/37/1 57/38/1 28/39/1 26/40/1
f 57/33/1 58/34/1 29/35/1 28/36/1
f 58/49/1 59/50/1 30/51/1 29/52/1
f 59/41/1 60/42/1 31/43/1 30/44/1
f 60/37/1 61/38/1 32/39/1 31/40/1
f 61/25/1 62/26/1 33/27/1 32/28/1
f 62/9/1 63/10/1 64/11/1 33/12/1
f 65/41/1 66/42/1 36/43/1 35/44/1
f 66/45/1 67/46/1 39/47/1 36/48/1
f 67/45/1 68/46/1 41/47/1 39/48/1
f 68/45/1 69/46/1 43/47/1 41/48/1
f 69/45/1 70/46/1 45/47/1 43/48/1
f 70/45/1 71/46/1 47/47/1 45/48/1
f 71/49/1 72/50/1 49/51/1 47/52/1
f 73/17/1 74/18/1 57/19/1 56/20/1
f 74/25/1 75/26/1 58/27/1 57/28/1
f 75/9/1 76/10/1 59/11/1 58/12/1
f 76/1/1 77/2/1 60/3/1 59/4/1
f 77/29/1 78/30/1 61/31/1 60/32/1
f 78/21/1 79/22/1 62/23/1 61/24/1
f 79/53/1 80/54/1 63/55/1 62/56/1
f 81/17/1 82/18/1 74/19/1 73/20/1
f 82/21/1 83/22/1 75/23/1 74/24/1
f 83/25/1 84/26/1 76/27/1 75/28/1
f 84/29/1 85/30/1 77/31/1 76/32/1
f 85/33/1 86/34/1 78/35/1 77/36/1
f 86/45/1 87/46/1 79/47/1 78/48/1
f 87/49/1 88/50/1 80/51/1 79/52/1
f 89/41/1 90/42/1 82/43/1 81/44/1
f 90/45/1 91/46/1 83/47/1 82/48/1
f 91/45/1 92/46/1 84/47/1 83/48/1
f 92/37/1 93/38/1 85/39/1 84/40/1
f 93/53/1 94/54/1 86/55/1 85/56/1
f 95/17/1 96/18/1 93/19/1 92/20/1
f 96/53/1 97/54/1 94/55/1 93/56/1
f 98/1/1 99/2/1 100/3/1 101/4/1
f 99/5/1 102/6/1 103/7/1 100/8/1
f 102/9/1 104/10/1 105/11/1 103/12/1
f 106/17/1 107/18/1 96/19/1 95/20/1
f 107/25/1 108/26/1 97/27/1 96/28/1
f 108/5/1 109/6/1 110/7/1 97/8/1
f 109/5/1 111/6/1 112/7/1 110/8/1
f 111/5/1 113/6/1 114/7/1 112/8/1
f 113/5/1 115/6/1 116/7/1 114/8/1
f 115/5/1 117/6/1 98/7/1 116/8/1
f 117/29/1 118/30/1 99/31/1 98/32/1
f 118/21/1 119/22/1 102/23/1 99/24/1
f 119/53/1 120/54/1 104/55/1 102/56/1
f 121/41/1 122/42/1 107/43/1 106/44/1
f 122/45/1 123/46/1 108/47/1 107/48/1
f 123/45/1 124/46/1 109/47/1 108/48/1
f 124/45/1 125/46/1 111/47/1 109/48/1
f 125/45/1 126/46/1 113/47/1 111/48/1
f 126/45/1 127/46/1 115/47/1 113/48/1
f 127/45/1 128/46/1 117/47/1 115/48/1
f 128/45/1 129/46/1 118/47/1 117/48/1
f 129/45/1 130/46/1 119/47/1 118/48/1
f 130/49/1 131/50/1 120/51/1 119/52/1

